<svg xmlns="http://www.w3.org/2000/svg" fill="none" viewBox="0 0 260 260">
    <g transform="translate(0,260) scale(0.1,-0.1)" stroke="none">
        <path d="M848 2003 l-3 -228 -25 3 c-14 2 -79 5 -145 5 -130 2 -185 -10 -275
        -60 -143 -81 -224 -179 -280 -342 -32 -91 -30 -231 3 -331 35 -106 72 -165
        147 -240 95 -96 212 -149 356 -164 61 -7 179 6 219 23 11 5 46 18 78 31 l58
        22 57 -30 c46 -25 147 -51 195 -52 4 0 7 63 7 139 l0 139 56 51 c30 28 60 51
        65 51 5 0 9 -81 9 -190 l0 -191 53 7 c61 8 152 40 187 66 26 19 26 18 102 -17
        217 -100 463 -52 638 124 175 177 214 432 101 659 -34 70 -111 163 -157 193
        -154 99 -200 114 -359 112 -66 -1 -131 -3 -145 -5 -25 -3 -25 -2 -31 82 -8
        119 -38 190 -108 261 -62 62 -127 92 -223 103 l-58 6 0 -345 0 -345 -57 -55
        c-32 -30 -61 -55 -65 -55 -5 0 -8 101 -8 226 0 258 -11 331 -63 409 -59 91
        -153 145 -274 159 l-53 7 -2 -228z m-86 -629 c14 -7 36 -27 47 -43 22 -31 43
        -115 34 -138 -3 -7 2 -13 11 -13 26 0 145 64 214 115 61 45 90 54 61 19 -26
        -32 -185 -162 -242 -198 -141 -90 -275 -100 -343 -24 -94 102 -59 248 71 296
        35 13 108 6 147 -14z m1241 12 c125 -45 158 -207 61 -298 -125 -116 -332 0
        -294 166 5 22 7 42 5 44 -6 6 -129 -60 -212 -114 -46 -29 -83 -50 -83 -45 0
        12 111 109 170 148 97 66 214 111 285 112 17 0 47 -6 68 -13z"/>
    </g>
    <style>
        path { fill: #000; }
        @media (prefers-color-scheme: dark) {
            path { fill: #FFF; }
        }
    </style>
</svg>
