<?xml version="1.0" encoding="UTF-8"?>
<!DOCTYPE svg PUBLIC "-//W3C//DTD SVG 1.1//EN" "http://www.w3.org/Graphics/SVG/1.1/DTD/svg11.dtd">
<svg xmlns="http://www.w3.org/2000/svg" version="1.1" width="512px" height="512px" style="shape-rendering:geometricPrecision; text-rendering:geometricPrecision; image-rendering:optimizeQuality; fill-rule:evenodd; clip-rule:evenodd" xmlns:xlink="http://www.w3.org/1999/xlink">
<g><path style="opacity:0.991" fill="#fefefe" d="M 232.5,9.5 C 317.022,4.53197 387.189,33.532 443,96.5C 494.804,162.071 511.137,235.738 492,317.5C 465.167,407 407,465.167 317.5,492C 231.427,512.062 155.094,493.396 88.5,436C 19.4485,367.998 -4.38484,286.498 17,191.5C 46.5267,94.6399 110.693,35.1399 209.5,13C 217.304,11.7674 224.971,10.6008 232.5,9.5 Z"/></g>
<g><path style="opacity:1" fill="#000000" d="M 176.5,87.5 C 205.556,88.4208 226.389,101.754 239,127.5C 241.121,132.982 242.454,138.649 243,144.5C 243.884,173.516 245.051,202.516 246.5,231.5C 253.815,225.353 260.982,219.019 268,212.5C 268.5,170.835 268.667,129.168 268.5,87.5C 300.792,87.7174 322.959,102.717 335,132.5C 337.619,144.054 339.452,155.721 340.5,167.5C 357.157,168.333 373.823,168.833 390.5,169C 432.693,177.857 459.86,203.024 472,244.5C 481.542,293.905 465.375,332.405 423.5,360C 397.857,374.667 370.857,378 342.5,370C 333.868,366.401 325.201,362.901 316.5,359.5C 302.376,368.096 287.043,373.096 270.5,374.5C 268.837,354.688 267.837,334.688 267.5,314.5C 267.5,311.833 267.5,309.167 267.5,306.5C 264.86,306.954 262.527,308.121 260.5,310C 255.429,314.949 250.262,319.783 245,324.5C 244.667,340.833 244.333,357.167 244,373.5C 242.6,374.116 241.1,374.449 239.5,374.5C 232.314,373.786 225.314,372.286 218.5,370C 211.495,366.831 204.495,363.664 197.5,360.5C 188.062,363.719 178.729,367.219 169.5,371C 123.502,380.671 86.0023,367.171 57,330.5C 38.8878,302.72 33.8878,272.72 42,240.5C 55.4092,201.418 82.2425,177.584 122.5,169C 139.525,168.224 156.525,168.391 173.5,169.5C 173.5,155.833 173.5,142.167 173.5,128.5C 173.839,114.636 174.839,100.969 176.5,87.5 Z"/></g>
<g><path style="opacity:1" fill="#000000" d="M 176.5,87.5 C 174.839,100.969 173.839,114.636 173.5,128.5C 173.5,114.5 173.5,100.5 173.5,86.5C 174.791,86.2627 175.791,86.596 176.5,87.5 Z"/></g>
<g><path style="opacity:1" fill="#fbfbfb" d="M 132.5,238.5 C 160.067,235.74 173.4,248.074 172.5,275.5C 172.887,276.72 173.72,277.387 175,277.5C 191.092,271.047 205.925,262.547 219.5,252C 221.715,250.186 224.048,249.686 226.5,250.5C 211.681,265.899 195.347,279.399 177.5,291C 164.382,299.529 150.048,303.196 134.5,302C 118.597,297.041 110.264,286.208 109.5,269.5C 109.339,259.322 113.339,251.155 121.5,245C 125.23,242.807 128.897,240.64 132.5,238.5 Z"/></g>
<g><path style="opacity:1" fill="#fbfbfb" d="M 363.5,237.5 C 382.708,235.925 395.875,243.925 403,261.5C 405.907,285.055 395.74,298.721 372.5,302.5C 346.894,298.626 336.56,283.959 341.5,258.5C 341.167,257.5 340.833,256.5 340.5,255.5C 323.856,263.667 307.856,272.834 292.5,283C 291.241,283.982 289.908,284.315 288.5,284C 309.081,261.376 334.081,245.876 363.5,237.5 Z"/></g>
<g><path style="opacity:1" fill="#939393" d="M 267.5,314.5 C 267.837,334.688 268.837,354.688 270.5,374.5C 269.791,375.404 268.791,375.737 267.5,375.5C 267.5,355.167 267.5,334.833 267.5,314.5 Z"/></g>
</svg>
